<svg xmlns="http://www.w3.org/2000/svg" viewBox="0 0 512 512">
  <circle cx="256" cy="256" r="256" fill="#366695"/>
  <path d="M216.426 376.951l121.618 121.618c90.795-30.699 158.746-110.947 171.704-208.563L334.605 114.864 216.426 376.951z" fill="#38c6d9"/>
  <path d="M216.426 376.951l121.618 121.618c90.795-30.699 158.746-110.947 171.704-208.563L334.605 114.864 216.426 376.951z" fill="#273b7a"/>
  <path fill="#fcd088" d="M213.333 292.219h85.333v85.333h-85.333z"/>
  <path fill="#ddab62" d="M255.431 292.219h43.236v85.333h-43.236z"/>
  <path d="M357.764 360.5l-45.22-9.044-7.992-11.666a5.546 5.546 0 0 0-6.759-1.965l-.217.093a104.805 104.805 0 0 1-83.116-.076 5.547 5.547 0 0 0-6.754 1.893l-8.247 11.719-45.22 9.044c-23.026 4.606-39.598 24.821-39.598 48.3v60.647C155.148 496.328 203.742 512 256 512s100.852-15.672 141.36-42.555v-60.647c0-23.479-16.572-43.694-39.596-48.298z" fill="#fee187"/>
  <path d="M357.764 360.5l-45.22-9.044-7.992-11.666a5.546 5.546 0 0 0-6.759-1.965l-.217.093a104.796 104.796 0 0 1-42.148 8.539V511.99c.191 0 .381.01.574.01 52.258 0 100.852-15.672 141.36-42.555v-60.647c-.002-23.479-16.575-43.694-39.598-48.298z" fill="#ffc61b"/>
  <path d="M347.531 205.44c.459-4.244.698-8.428.698-12.509 0-53.974-41.293-97.728-92.229-97.728s-92.229 43.753-92.229 97.728c0 4.08.24 8.264.698 12.509-8.945 2.326-13.202 16.087-9.506 30.817 3.708 14.776 14.014 24.921 23.018 22.661.821-.205 1.586-.538 2.326-.927 16.667 33.452 44.351 60.594 75.693 60.594s59.027-27.139 75.693-60.594c.74.39 1.505.722 2.326.927 9.004 2.26 19.309-7.885 23.018-22.661 3.695-14.73-.561-28.494-9.506-30.817z" fill="#ffedb5"/>
  <path d="M347.531 205.44c.459-4.244.698-8.428.698-12.509 0-53.974-41.293-97.728-92.229-97.728-.193 0-.381.014-.574.016v223.349c.191.002.381.016.574.016 31.342 0 59.027-27.139 75.693-60.594.74.39 1.505.722 2.326.927 9.004 2.26 19.309-7.885 23.018-22.661 3.695-14.729-.561-28.493-9.506-30.816z" fill="#e8cf89"/>
  <path d="M162.047 189.918s1.724 18.963 6.034 30.456l8.045-.288s-2.012-15.515 14.941-31.318-29.02 1.15-29.02 1.15z" fill="#494948"/>
  <path d="M349.953 189.918s-1.724 18.963-6.034 30.456l-8.045-.288s2.012-15.515-14.941-31.318c-16.952-15.803 29.02 1.15 29.02 1.15z" fill="#303030"/>
  <path d="M354.263 190.923c0-25.984-8.239-48.502-21.964-65.708l2.819-3.258a5.028 5.028 0 0 0-.514-7.094l-17.601-15.226a5.026 5.026 0 0 0-7.092.514l-2.653 3.067c-10.409-6.285-22.1-10.593-34.592-12.638v-4.96a5.029 5.029 0 0 0-5.029-5.029h-23.273a5.029 5.029 0 0 0-5.029 5.029v4.96c-12.491 2.043-24.183 6.351-34.592 12.638l-2.653-3.067a5.03 5.03 0 0 0-7.094-.514l-17.601 15.226a5.03 5.03 0 0 0-.514 7.094l2.819 3.258c-13.724 17.206-21.963 39.724-21.963 65.708h196.526z" fill="#fee187"/>
  <path d="M332.298 125.214l2.819-3.258a5.028 5.028 0 0 0-.514-7.094l-17.601-15.226a5.028 5.028 0 0 0-7.094.514l-2.653 3.067c-10.409-6.285-22.1-10.593-34.592-12.638v-4.96a5.029 5.029 0 0 0-5.029-5.029h-12.21v110.33h98.838c.001-25.982-8.238-48.5-21.964-65.706z" fill="#ffc61b"/>
  <path d="M256 163.74c-39.421 0-75.143 9.969-101.224 26.124-1.995 1.236-1.131 4.31 1.215 4.31h200.018c2.346 0 3.21-3.074 1.215-4.31C331.143 173.709 295.421 163.74 256 163.74z" fill="#ff5419"/>
  <path d="M357.224 189.864C331.143 173.709 295.421 163.74 256 163.74c-.193 0-.381.009-.574.009v30.423h100.581c2.348 0 3.212-3.072 1.217-4.308z" fill="#ff0f27"/>
  <path d="M187.906 353.764l-20.687 4.137v138.23C194.882 506.368 224.777 512 256 512s61.119-5.632 88.781-15.869V357.903l-20.687-4.137v62.557H187.906v-62.559z" fill="#273b7a"/>
  <path d="M324.094 353.764v62.559h-68.668v95.67c.191 0 .381.007.574.007 31.223 0 61.119-5.632 88.781-15.869V357.904l-20.687-4.14z" fill="#121149"/>
</svg>
