<svg xmlns="http://www.w3.org/2000/svg" viewBox="0 0 512 512">
  <circle cx="256" cy="256" r="256" fill="#71e2ef"/>
  <path d="M209.275 377.93l124.611 121.989C437.184 466.961 512 370.224 512 256c0-2.329-.036-4.649-.097-6.965L337.301 103.879 209.275 377.93z" fill="#38c6d9"/>
  <path fill="#fcd088" d="M213.333 292.219h85.333v104.296h-85.333z"/>
  <path fill="#ddab62" d="M255.431 292.219h43.236v104.296h-43.236z"/>
  <path d="M357.764 365.671l-45.22-9.044-7.992-11.666a5.546 5.546 0 0 0-6.759-1.965L256 390.494l-41.543-47.48a5.547 5.547 0 0 0-6.754 1.893l-8.247 11.719-45.22 9.044c-23.023 4.606-39.596 24.821-39.596 48.3v55.475C155.148 496.328 203.742 512 256 512s100.852-15.672 141.36-42.555V413.97c0-23.479-16.573-43.694-39.596-48.299z" fill="#ff0f27"/>
  <path d="M357.764 365.671l-45.22-9.044-7.992-11.666a5.546 5.546 0 0 0-6.759-1.965L256 390.494l-.574-.657V511.99c.191 0 .381.01.574.01 52.258 0 100.852-15.672 141.36-42.555V413.97c0-23.479-16.573-43.694-39.596-48.299z" fill="#aa0b29"/>
  <path d="M347.531 205.44c.459-4.244.698-8.428.698-12.509 0-53.974-41.293-97.728-92.229-97.728s-92.229 43.754-92.229 97.728c0 4.08.24 8.264.698 12.509-8.945 2.326-13.202 16.087-9.506 30.817 3.708 14.776 14.014 24.921 23.018 22.661.821-.205 1.586-.538 2.326-.927 16.667 33.452 44.351 60.594 75.693 60.594s59.027-27.139 75.693-60.594c.74.39 1.505.722 2.326.927 9.004 2.26 19.309-7.885 23.018-22.661 3.697-14.73-.559-28.494-9.506-30.817z" fill="#ffedb5"/>
  <path d="M347.531 205.44c.459-4.244.698-8.428.698-12.509 0-53.974-41.293-97.728-92.229-97.728-.193 0-.381.014-.574.016v223.349c.191.002.383.016.574.016 31.342 0 59.027-27.139 75.693-60.594.74.39 1.505.722 2.326.927 9.004 2.26 19.309-7.885 23.018-22.661 3.697-14.729-.559-28.493-9.506-30.816z" fill="#e8cf89"/>
  <path d="M162.047 189.918s1.724 18.963 6.034 30.456l8.045-.288s-2.012-15.515 14.941-31.318-29.02 1.15-29.02 1.15z" fill="#494948"/>
  <path d="M349.953 189.918s-1.724 18.963-6.034 30.456l-8.045-.288s2.012-15.515-14.941-31.318 29.02 1.15 29.02 1.15z" fill="#333"/>
  <g fill="#940030">
    <circle cx="256" cy="413.186" r="4.31"/>
    <circle cx="256" cy="430.994" r="4.31"/>
    <path d="M256 390.608l-43.973-51.053c-1.872-2.007-5.26-2.003-7.127.007l-16.994 19.299 36.664 52.707c3.053 4.472 10.119 4.596 13.357.233L256 390.608z"/>
  </g>
  <path d="M256 390.608l43.973-51.053c1.872-2.007 5.26-2.003 7.127.007l16.994 19.297-36.664 52.707c-3.053 4.472-10.119 4.596-13.357.233L256 390.608z" fill="#75002a"/>
  <path d="M293.764 509.221a254.777 254.777 0 0 0 31.885-6.815l37.179-137.973-28.101-4.568-40.963 149.356z" fill="#353534"/>
  <path d="M353.115 190.492H158.887v-51.795c0-22.659 16.031-42.153 38.264-46.528l46.558-9.163a47.427 47.427 0 0 1 17.706-.116l52.827 9.683c22.518 4.127 38.871 23.752 38.871 46.644v51.274h.002z" fill="#fee187"/>
  <path d="M353.115 139.217c0-22.892-16.355-42.517-38.871-46.644l-52.827-9.683a47.208 47.208 0 0 0-5.989-.696v108.297h97.687v-51.274z" fill="#ffc61b"/>
  <path d="M256 161.12c-39.421 0-75.143 9.969-101.224 26.124-1.995 1.236-1.131 4.31 1.215 4.31h200.018c2.346 0 3.21-3.074 1.215-4.31C331.145 171.089 295.422 161.12 256 161.12z" fill="#ff5419"/>
  <path d="M357.224 187.244C331.143 171.089 295.421 161.12 256 161.12c-.193 0-.381.009-.574.009v30.423h100.583c2.346.001 3.21-3.072 1.215-4.308z" fill="#ff0f27"/>
  <ellipse cx="256" cy="124.328" rx="21.333" ry="18.316" fill="#ff5419"/>
  <path d="M256 106.02c-.193 0-.381.021-.574.024v36.583c.193.005.381.024.574.024 11.783 0 21.333-8.201 21.333-18.316 0-10.114-9.55-18.315-21.333-18.315z" fill="#ff0f27"/>
</svg>
