<svg xmlns="http://www.w3.org/2000/svg" viewBox="0 0 512.002 512.002">
  <circle cx="256.001" cy="256" r="256" fill="#ff7f4f"/>
  <path d="M242.067 402.963l95.697 95.697C428.05 468.25 495.8 388.863 509.456 292.09L322.897 104.736l-80.83 298.227z" fill="#ff5419"/>
  <path fill="#fcd088" d="M213.334 292.219h85.333v85.333h-85.333z"/>
  <path fill="#ddab62" d="M255.432 292.219h43.236v85.333h-43.236z"/>
  <path d="M357.765 360.5l-45.22-9.044-7.992-11.666a5.546 5.546 0 0 0-6.759-1.965l-41.793 18.004-41.543-17.987a5.547 5.547 0 0 0-6.754 1.893l-8.247 11.719-45.22 9.044c-23.024 4.606-39.596 24.821-39.596 48.3v60.647c40.508 26.883 89.1 42.555 141.36 42.555 44.166 0 85.721-11.185 121.985-30.877 6.644-4.113 13.107-8.32 19.375-12.514V408.8c0-23.481-16.572-43.696-39.596-48.3z" fill="#d9edec"/>
  <path d="M357.765 360.5l-45.22-9.044-7.992-11.666a5.546 5.546 0 0 0-6.759-1.965l-41.793 18.004-.574-.248V511.99c.191 0 .381.01.574.01 44.166 0 85.721-11.185 121.985-30.877 6.644-4.113 13.107-8.32 19.375-12.514V408.8c0-23.481-16.572-43.696-39.596-48.3z" fill="#c1d3d1"/>
  <path d="M347.532 205.44c.459-4.244.698-8.428.698-12.509 0-53.974-41.293-97.728-92.229-97.728s-92.229 43.753-92.229 97.728c0 4.08.24 8.264.698 12.509-8.945 2.326-13.202 16.087-9.506 30.817 3.708 14.776 14.014 24.921 23.018 22.661.821-.205 1.586-.538 2.326-.927 16.667 33.452 44.351 60.594 75.693 60.594s59.027-27.139 75.693-60.594c.74.39 1.505.722 2.326.927 9.004 2.26 19.309-7.885 23.018-22.661 3.695-14.73-.561-28.494-9.506-30.817z" fill="#ffedb5"/>
  <path d="M347.532 205.44c.459-4.244.698-8.428.698-12.509 0-53.974-41.293-97.728-92.229-97.728-.193 0-.381.014-.574.016v223.349c.191.002.383.016.574.016 31.342 0 59.027-27.139 75.693-60.594.74.39 1.505.722 2.326.927 9.004 2.26 19.309-7.885 23.018-22.661 3.695-14.729-.561-28.493-9.506-30.816z" fill="#e8cf89"/>
  <path d="M300.681 401.291l-44.68-44.539-44.68 44.539-11.864-49.836-14.567 2.395 11.667 151.199a256.645 256.645 0 0 0 59.444 6.953c25.512 0 50.147-3.749 73.399-10.699l-2.296-147.453-14.558-2.395-11.865 49.836z" fill="#b7cecc"/>
  <path d="M329.4 501.301l-2.296-147.453-14.558-2.395-11.864 49.836-44.68-44.539-.574.572v154.667c.191 0 .383.009.574.009 25.511.002 50.146-3.747 73.398-10.697z" fill="#90adaa"/>
  <path d="M162.048 189.918s1.724 18.963 6.034 30.456l8.045-.288s-2.012-15.515 14.941-31.318-29.02 1.15-29.02 1.15z" fill="#494948"/>
  <path d="M349.954 189.918s-1.724 18.963-6.034 30.456l-8.045-.288s2.012-15.515-14.941-31.318c-16.952-15.803 29.02 1.15 29.02 1.15z" fill="#333"/>
  <path d="M354.263 190.923c0-25.984-8.239-48.502-21.964-65.708l2.819-3.258a5.028 5.028 0 0 0-.514-7.094l-17.601-15.226a5.026 5.026 0 0 0-7.092.514l-2.653 3.067c-10.409-6.285-22.1-10.593-34.592-12.638v-4.96a5.029 5.029 0 0 0-5.029-5.029h-23.273a5.029 5.029 0 0 0-5.029 5.029v4.96c-12.491 2.043-24.183 6.351-34.592 12.638l-2.653-3.067a5.03 5.03 0 0 0-7.094-.514l-17.601 15.226a5.03 5.03 0 0 0-.514 7.094l2.819 3.258c-13.724 17.206-21.963 39.724-21.963 65.708h196.526z" fill="#fee187"/>
  <path d="M332.299 125.214l2.819-3.258a5.028 5.028 0 0 0-.514-7.094l-17.601-15.226a5.026 5.026 0 0 0-7.092.514l-2.653 3.067c-10.409-6.285-22.1-10.593-34.592-12.638v-4.96a5.029 5.029 0 0 0-5.029-5.029h-12.21v110.33h98.837c-.001-25.982-8.239-48.5-21.965-65.706z" fill="#ffc61b"/>
  <path d="M256.001 163.74c-39.421 0-75.143 9.969-101.224 26.124-1.995 1.236-1.131 4.31 1.215 4.31H356.01c2.346 0 3.21-3.074 1.215-4.31-26.081-16.155-61.804-26.124-101.224-26.124z" fill="#940030"/>
  <path d="M357.225 189.864c-26.081-16.155-61.804-26.124-101.224-26.124-.193 0-.381.009-.574.009v30.423H356.01c2.346 0 3.21-3.072 1.215-4.308z" fill="#6d052a"/>
  <path d="M358.385 360.108l-31.282-6.261-30.77 154.979c37.247-5.896 71.818-19.82 101.888-39.95v-60.173c.002-23.622-16.672-43.961-39.836-48.595z" fill="#273b7a"/>
  <path d="M153.616 360.108l31.273-6.261 30.777 154.979c-37.247-5.896-71.818-19.82-101.888-39.95v-60.173c.001-23.622 16.674-43.961 39.838-48.595z" fill="#366695"/>
  <path d="M237.324 375.513l10.488 13.478v122.864c2.72.086 5.448.143 8.189.143s5.468-.059 8.189-.143V388.991l10.488-13.478-18.677-18.761-18.677 18.761z" fill="#494948"/>
  <path d="M256.001 356.752l-.574.578v154.662c.191 0 .383.01.574.01 2.741 0 5.468-.059 8.189-.143V388.994l10.488-13.477-18.677-18.765z" fill="#333"/>
  <g fill="#ffc61b">
    <path d="M155.152 449.077a4.31 4.31 0 0 1-4.31-4.31v-29.88c0-2.381 1.929-4.31 4.31-4.31s4.31 1.929 4.31 4.31v29.88a4.31 4.31 0 0 1-4.31 4.31zM166.072 452.237a3.45 3.45 0 0 1-3.448-3.448v-29.88c0-1.903 1.545-3.448 3.448-3.448s3.448 1.545 3.448 3.448v29.88a3.449 3.449 0 0 1-3.448 3.448z"/>
  </g>
  <path d="M179.144 482.406h-25.859a7.039 7.039 0 0 1-7.039-7.039v-46.689h39.936v46.689a7.038 7.038 0 0 1-7.038 7.039z" fill="#273b7a"/>
</svg>
